# xmcd
# Copyright (C) 1995-1998 Ti Kan
#
# Track frame offsets:
#       150
#       19336
#       35342
#       50915
#       64915
#       81354
#       97178
#       111056
#       127197
#       142216
#       156682
#       170400
#
# Disc length: 2412 seconds
#
# Revision: 0
# Processed by: cddbd v1.5.2PL0 Copyright (c) Steve Scherf et al.
# Submitted via: CD-Import v1.0
#
DISCID=bc096a0c
DTITLE=Shagal - An American Tragedy
DYEAR=09
DGENRE=
TTITLE0=Sitting In My Room
TTITLE1=American Darling
TTITLE2=And Every Day
TTITLE3=Here Comes The Sungirl
TTITLE4=Now I Close My Eyes
TTITLE5=Without Your Love Girl
TTITLE6=A Place In The Sun
TTITLE7=Moments
TTITLE8=Because I Love You
TTITLE9=Tomorrow
TTITLE10=I Hate This Waiting
TTITLE11=Another Way
EXTD=
EXTT0=
EXTT1=
EXTT2=
EXTT3=
EXTT4=
EXTT5=
EXTT6=
EXTT7=
EXTT8=
EXTT9=
EXTT10=
EXTT11=
PLAYORDER=
